<svg width="32" height="32" viewBox="0 0 32 32" fill="none" xmlns="http://www.w3.org/2000/svg">
<g id="flat-color-icons:google">
<path id="Vector" d="M29.0753 13.3887H28.0013V13.3334H16.0013V18.6667H23.5366C22.4373 21.7714 19.4833 24.0001 16.0013 24.0001C11.5833 24.0001 8.0013 20.4181 8.0013 16.0001C8.0013 11.5821 11.5833 8.00008 16.0013 8.00008C18.0406 8.00008 19.896 8.76941 21.3086 10.0261L25.08 6.25475C22.6986 4.03541 19.5133 2.66675 16.0013 2.66675C8.63797 2.66675 2.66797 8.63675 2.66797 16.0001C2.66797 23.3634 8.63797 29.3334 16.0013 29.3334C23.3646 29.3334 29.3346 23.3634 29.3346 16.0001C29.3346 15.1061 29.2426 14.2334 29.0753 13.3887Z" fill="#FFC107"/>
<path id="Vector_2" d="M4.20312 9.79402L8.58379 13.0067C9.76912 10.072 12.6398 8.00002 15.9991 8.00002C18.0385 8.00002 19.8938 8.76935 21.3065 10.026L25.0778 6.25469C22.6965 4.03535 19.5111 2.66669 15.9991 2.66669C10.8778 2.66669 6.43646 5.55802 4.20312 9.79402Z" fill="#FF3D00"/>
<path id="Vector_3" d="M15.9989 29.3333C19.4429 29.3333 22.5722 28.0153 24.9382 25.872L20.8116 22.38C19.4279 23.4322 17.7372 24.0013 15.9989 24C12.5309 24 9.58624 21.7886 8.47691 18.7026L4.12891 22.0526C6.33557 26.3706 10.8169 29.3333 15.9989 29.3333Z" fill="#4CAF50"/>
<path id="Vector_4" d="M29.074 13.3886H28V13.3333H16V18.6666H23.5353C23.0095 20.1443 22.0622 21.4354 20.8107 22.3806L20.8127 22.3793L24.9393 25.8713C24.6473 26.1366 29.3333 22.6666 29.3333 16C29.3333 15.106 29.2413 14.2333 29.074 13.3886Z" fill="#1976D2"/>
</g>
</svg>
